<svg width="218" height="67" viewBox="0 0 218 67" fill="none" xmlns="http://www.w3.org/2000/svg">
    <rect width="67" height="67" rx="21" fill="url(#paint0_linear_1_23)"/>
    <path d="M34.0701 43.7543C35.861 43.4701 37.4967 42.8484 38.7683 41.5281C40.0697 40.1781 40.8159 38.5618 40.9353 36.6849C41.0248 36.4303 41.0189 36.1757 40.9353 35.927C40.8159 32.9607 38.8459 30.1128 35.6163 29.1359C34.4223 28.7747 33.6701 28.0169 33.4791 26.7617C33.4373 24.9854 33.4373 23.2092 33.4791 21.4389C33.5985 20.0949 35.073 19.041 36.4162 19.189C39.2518 19.5087 41.7472 20.681 44.0157 22.2737C45.6335 23.4105 46.9886 24.8848 48.1109 26.5485C49.663 28.8576 50.6182 31.3621 50.9226 34.1212C50.9525 34.3817 51.0301 34.6363 51.0838 34.8968C51.1972 35.1929 51.1137 35.5007 51.1375 35.8086C51.1077 36.1994 51.1972 36.5961 51.0838 36.9869C50.9107 40.8117 49.6093 44.2398 47.2035 47.212C45.5678 49.2369 43.5799 50.8592 41.1562 51.9783C39.4906 52.748 37.7952 53.2868 35.9924 53.5236C35.676 53.4644 35.3775 53.5236 35.0969 53.6716C34.8999 53.6716 34.7029 53.6716 34.5059 53.6716C33.8134 53.6894 33.1149 53.7308 32.4225 53.6716H31.9688C31.7419 53.5118 31.4792 53.5236 31.2225 53.5236C30.1719 53.4525 29.1869 53.1387 28.1959 52.8131C25.4259 51.8954 22.9843 50.4211 20.9188 48.4021C18.2683 45.8147 16.6624 42.6649 16.1371 38.9822C16.0057 38.0704 15.7789 37.1704 15.8804 36.2349C15.946 36.0691 15.9281 35.8974 15.9281 35.7257C15.9281 29.7517 15.9281 23.7776 15.9281 17.8035C15.9281 17.6318 15.952 17.4601 15.8804 17.2943C16.0356 15.4411 17.2116 14.2629 19.2771 13.8781C20.2801 13.7833 21.277 13.7892 22.2799 13.8781C24.2857 14.0498 25.6588 15.376 25.8617 17.2884C25.9752 17.5489 25.9214 17.8213 25.9214 18.0936C25.9214 22.0843 25.9214 26.0749 25.9214 30.0595C25.9214 33.3574 25.1991 37.3776 27.1273 40.2906C28.0646 41.7057 30.8763 44.1984 32.8403 43.7661C33.2523 43.6773 33.6582 43.6773 34.0701 43.7661V43.7543Z" fill="white"/>
    <path d="M87.22 44V22.31H95.485C98.425 22.31 100.585 22.8 101.965 23.78C103.345 24.76 104.035 26.175 104.035 28.025C104.035 29.055 103.77 29.965 103.24 30.755C102.72 31.535 101.775 32.24 100.405 32.87C101.325 33.12 102.06 33.45 102.61 33.86C103.17 34.27 103.585 34.715 103.855 35.195C104.135 35.675 104.32 36.165 104.41 36.665C104.5 37.165 104.545 37.645 104.545 38.105C104.545 40.115 103.87 41.6 102.52 42.56C101.17 43.52 98.965 44 95.905 44H87.22ZM92.335 40.115H96.07C97.15 40.115 97.965 39.87 98.515 39.38C99.075 38.88 99.355 38.265 99.355 37.535C99.355 37.015 99.22 36.57 98.95 36.2C98.69 35.82 98.325 35.53 97.855 35.33C97.395 35.12 96.86 35.015 96.25 35.015H92.335V40.115ZM92.335 31.025H96.25C96.66 31.025 97.035 30.975 97.375 30.875C97.715 30.775 98.015 30.625 98.275 30.425C98.535 30.225 98.74 29.98 98.89 29.69C99.04 29.39 99.115 29.05 99.115 28.67C99.115 27.88 98.82 27.27 98.23 26.84C97.64 26.41 96.9 26.195 96.01 26.195H92.335V31.025ZM113.137 44.3C112.467 44.3 111.787 44.19 111.097 43.97C110.407 43.75 109.772 43.43 109.192 43.01C108.612 42.58 108.142 42.06 107.782 41.45C107.432 40.83 107.257 40.12 107.257 39.32V28.49H112.372V38.63C112.372 39.21 112.572 39.695 112.972 40.085C113.372 40.465 113.947 40.655 114.697 40.655C115.417 40.655 115.987 40.47 116.407 40.1C116.827 39.72 117.037 39.22 117.037 38.6V28.49H122.107V44H118.297L117.697 40.865C117.507 41.835 117.157 42.57 116.647 43.07C116.137 43.56 115.562 43.885 114.922 44.045C114.292 44.215 113.697 44.3 113.137 44.3ZM131.439 44.3C129.329 44.3 127.694 43.57 126.534 42.11C125.384 40.65 124.809 38.665 124.809 36.155C124.809 34.525 125.044 33.115 125.514 31.925C125.994 30.735 126.689 29.815 127.599 29.165C128.509 28.515 129.614 28.19 130.914 28.19C131.384 28.19 131.839 28.24 132.279 28.34C132.719 28.44 133.134 28.585 133.524 28.775C133.924 28.955 134.279 29.185 134.589 29.465C134.909 29.735 135.174 30.055 135.384 30.425V21.71H140.514V44H136.869L136.269 40.82C136.109 41.3 135.894 41.755 135.624 42.185C135.364 42.605 135.039 42.975 134.649 43.295C134.269 43.605 133.814 43.85 133.284 44.03C132.754 44.21 132.139 44.3 131.439 44.3ZM132.609 40.685C133.499 40.685 134.184 40.345 134.664 39.665C135.144 38.985 135.384 37.805 135.384 36.125C135.384 35.135 135.274 34.325 135.054 33.695C134.844 33.055 134.534 32.585 134.124 32.285C133.724 31.985 133.224 31.835 132.624 31.835C131.814 31.835 131.134 32.16 130.584 32.81C130.044 33.45 129.774 34.555 129.774 36.125C129.774 37.745 130.039 38.91 130.569 39.62C131.099 40.33 131.779 40.685 132.609 40.685ZM146.703 48.95C145.573 48.95 144.768 48.85 144.288 48.65C143.808 48.45 143.568 48.35 143.568 48.35V45.11L145.068 45.185C145.787 45.235 146.358 45.21 146.778 45.11C147.198 45.01 147.513 44.87 147.723 44.69C147.933 44.52 148.073 44.345 148.143 44.165C148.223 43.995 148.273 43.875 148.293 43.805L148.473 43.22L142.443 28.49H147.483L150.813 37.76L154.218 28.49H159.213L153.048 43.595C152.438 45.065 151.808 46.185 151.158 46.955C150.508 47.735 149.813 48.26 149.073 48.53C148.343 48.81 147.553 48.95 146.703 48.95ZM169.113 44.195C167.623 44.195 166.468 44.01 165.648 43.64C164.838 43.26 164.273 42.745 163.953 42.095C163.643 41.435 163.488 40.69 163.488 39.86V31.985H160.968V28.49H163.668L164.973 23.735H168.588V28.46H171.993V31.985H168.588L168.603 39.635C168.603 39.945 168.648 40.175 168.738 40.325C168.838 40.475 168.973 40.575 169.143 40.625C169.313 40.675 169.518 40.7 169.758 40.7H172.023V43.775C171.813 43.865 171.488 43.955 171.048 44.045C170.608 44.145 169.963 44.195 169.113 44.195ZM179.545 44.3C178.565 44.3 177.67 44.115 176.86 43.745C176.06 43.365 175.425 42.815 174.955 42.095C174.485 41.375 174.25 40.495 174.25 39.455C174.25 37.765 174.9 36.465 176.2 35.555C177.5 34.645 179.54 34.185 182.32 34.175L183.895 34.16V33.365C183.895 32.755 183.72 32.3 183.37 32C183.03 31.69 182.495 31.54 181.765 31.55C181.245 31.56 180.72 31.685 180.19 31.925C179.66 32.155 179.285 32.585 179.065 33.215H174.88C174.94 32.045 175.285 31.09 175.915 30.35C176.545 29.61 177.385 29.065 178.435 28.715C179.495 28.365 180.68 28.19 181.99 28.19C183.69 28.19 185.035 28.395 186.025 28.805C187.015 29.205 187.72 29.77 188.14 30.5C188.57 31.22 188.785 32.07 188.785 33.05V44H184.54L184.105 41.435C183.615 42.525 183 43.275 182.26 43.685C181.52 44.095 180.615 44.3 179.545 44.3ZM181.3 41.015C181.64 41.015 181.965 40.955 182.275 40.835C182.585 40.715 182.86 40.55 183.1 40.34C183.34 40.12 183.53 39.88 183.67 39.62C183.81 39.36 183.885 39.08 183.895 38.78V36.665L182.635 36.68C182.115 36.68 181.575 36.75 181.015 36.89C180.465 37.03 180 37.265 179.62 37.595C179.24 37.915 179.05 38.36 179.05 38.93C179.05 39.58 179.275 40.09 179.725 40.46C180.175 40.83 180.7 41.015 181.3 41.015ZM197.403 44.3C196.113 44.3 195.098 44.155 194.358 43.865C193.628 43.575 193.093 43.2 192.753 42.74C192.413 42.27 192.198 41.75 192.108 41.18C192.028 40.61 191.988 40.045 191.988 39.485V21.71H196.983V38.825C196.983 39.295 197.093 39.705 197.313 40.055C197.533 40.395 198.008 40.61 198.738 40.7L199.413 40.745V43.88C199.093 43.99 198.763 44.085 198.423 44.165C198.083 44.255 197.743 44.3 197.403 44.3ZM202.066 44V21.71H207.166V34.31L212.146 28.49H217.546L211.906 34.79L217.666 44H212.656L208.756 37.805L207.166 39.56V44H202.066Z" fill="url(#paint1_linear_1_23)"/>
    <defs>
    <linearGradient id="paint0_linear_1_23" x1="0" y1="33.5" x2="67" y2="33.5" gradientUnits="userSpaceOnUse">
    <stop stop-color="#8611F4"/>
    <stop offset="1" stop-color="#D323FF"/>
    </linearGradient>
    <linearGradient id="paint1_linear_1_23" x1="85" y1="33.5" x2="219" y2="33.5" gradientUnits="userSpaceOnUse">
    <stop stop-color="#8611F4"/>
    <stop offset="1" stop-color="#D323FF"/>
    </linearGradient>
    </defs>
    </svg>
    