<svg width="34" height="39" viewBox="0 0 34 39" fill="none" xmlns="http://www.w3.org/2000/svg">
<path d="M17.5331 29.0241C19.2078 28.7533 20.7373 28.1612 21.9264 26.9035C23.1433 25.6176 23.8411 24.0779 23.9528 22.2901C24.0365 22.0476 24.0309 21.8051 23.9528 21.5682C23.8411 18.7427 21.999 16.0299 18.9789 15.0994C17.8624 14.7553 17.1591 14.0334 16.9804 12.8378C16.9414 11.1459 16.9414 9.45391 16.9804 7.76761C17.0921 6.48737 18.4709 5.4835 19.7269 5.62449C22.3786 5.92904 24.712 7.04572 26.8333 8.56283C28.3461 9.64567 29.6133 11.05 30.6627 12.6348C32.1141 14.8343 33.0073 17.2199 33.292 19.8481C33.3199 20.0962 33.3925 20.3388 33.4427 20.5869C33.5488 20.8689 33.4706 21.1622 33.493 21.4554C33.4651 21.8277 33.5488 22.2055 33.4427 22.5778C33.2808 26.2211 32.0639 29.4865 29.8142 32.3177C28.2847 34.2465 26.4257 35.7918 24.1593 36.8577C22.6018 37.5909 21.0165 38.1041 19.3306 38.3297C19.0347 38.2733 18.7556 38.3297 18.4933 38.4707C18.309 38.4707 18.1248 38.4707 17.9406 38.4707C17.293 38.4877 16.6399 38.5271 15.9924 38.4707H15.5681C15.356 38.3185 15.1104 38.3297 14.8703 38.3297C13.8878 38.2621 12.9667 37.9631 12.0401 37.653C9.44988 36.7788 7.16671 35.3745 5.23523 33.4513C2.75667 30.9867 1.25502 27.9863 0.763779 24.4784C0.640968 23.6098 0.428839 22.7526 0.523739 21.8615C0.585144 21.7036 0.568398 21.54 0.568398 21.3765C0.568398 15.6859 0.568398 9.99535 0.568398 4.30478C0.568398 4.14122 0.590727 3.97766 0.523739 3.81974C0.668879 2.05448 1.7686 0.932167 3.70008 0.56558C4.63792 0.475343 5.57016 0.480983 6.508 0.56558C8.38366 0.729134 9.66759 1.99244 9.85739 3.8141C9.96346 4.06225 9.91321 4.32169 9.91321 4.58112C9.91321 8.38235 9.91321 12.1836 9.91321 15.9792C9.91321 19.1205 9.23775 22.95 11.0408 25.7248C11.9173 27.0727 14.5465 29.447 16.3831 29.0353C16.7683 28.9507 17.1479 28.9507 17.5331 29.0353V29.0241Z" fill="#C01FFC"/>
</svg>
